<?xml version="1.0" standalone="no"?>
<!DOCTYPE svg PUBLIC "-//W3C//DTD SVG 20010904//EN"
 "http://www.w3.org/TR/2001/REC-SVG-20010904/DTD/svg10.dtd">
<svg version="1.0" xmlns="http://www.w3.org/2000/svg"
 width="619.000000pt" height="397.000000pt" viewBox="0 0 619.000000 397.000000"
 preserveAspectRatio="xMidYMid meet">
<metadata>
Created by potrace 1.16, written by Peter Selinger 2001-2019
</metadata>
<g transform="translate(0.000000,397.000000) scale(0.100000,-0.100000)"
fill="#000000" stroke="none">
<path d="M3 2448 c1 -838 6 -1534 10 -1548 6 -20 6 -21 -2 -5 -6 13 -10 -141
-10 -437 l-1 -458 3095 0 3095 0 0 355 0 355 -215 0 -215 0 0 270 0 270 95 0
95 0 0 -195 0 -195 120 0 120 0 0 1555 0 1555 -1515 0 c-833 0 -1515 -4 -1515
-8 0 -4 10 -35 23 -67 l23 -60 105 -22 c57 -11 124 -28 148 -37 l43 -16 54 46
c41 35 59 45 76 40 28 -7 162 -86 202 -118 l28 -24 -19 -69 -20 -70 68 -73
c37 -40 80 -93 96 -117 l28 -46 77 7 76 6 27 -53 c61 -120 91 -229 63 -229 -6
0 -9 -2 -6 -5 3 -3 87 -10 188 -15 170 -10 200 -13 189 -24 -2 -2 -233 -23
-514 -45 -280 -23 -520 -43 -532 -46 -13 -3 -23 -1 -23 5 0 5 3 10 8 10 4 -1
219 16 479 37 439 35 570 53 384 53 -43 0 -106 3 -140 6 -59 7 -61 8 -44 26
16 18 16 22 -6 86 -12 37 -34 92 -49 122 l-27 55 -77 -3 -76 -3 -33 48 c-18
26 -64 80 -102 120 l-69 71 20 71 20 71 -36 28 c-50 39 -175 112 -192 112 -7
0 -35 -20 -61 -45 -26 -25 -52 -45 -57 -45 -5 0 -29 7 -53 16 -24 9 -91 26
-148 37 l-104 22 -26 69 -25 69 -115 -6 c-134 -8 -158 -13 -164 -36 -4 -14 -5
-14 -6 1 -1 22 14 31 69 39 25 3 -625 7 -1443 8 l-1488 1 4 -1522z m2837 1354
c0 -4 -33 -19 -72 -31 -40 -13 -103 -39 -140 -57 -37 -19 -72 -34 -78 -34 -6
0 -34 16 -63 35 -28 19 -57 35 -64 35 -14 0 -146 -104 -182 -143 l-24 -27 26
-62 c15 -35 27 -67 27 -72 0 -4 -16 -30 -36 -57 -20 -27 -57 -86 -83 -131
l-47 -83 -72 -3 -71 -3 -17 -54 c-10 -30 -19 -53 -22 -51 -2 2 4 29 14 60 l18
56 65 0 c36 0 71 4 77 8 5 4 27 39 48 77 21 39 55 93 77 122 21 29 39 56 39
60 0 4 -12 36 -27 71 l-26 63 44 45 c62 65 169 145 183 137 6 -4 35 -22 63
-40 l53 -33 52 26 c39 20 213 89 236 94 1 0 2 -4 2 -8z m450 -269 c220 -53
426 -217 529 -421 12 -24 20 -46 17 -49 -3 -3 -173 2 -377 11 -204 9 -373 15
-376 13 -2 -3 49 -38 114 -78 135 -83 128 -78 122 -83 -2 -2 -164 -14 -359
-26 -195 -11 -371 -25 -390 -30 l-35 -8 39 -1 c60 -2 1075 -60 1134 -65 29 -2
50 -1 47 4 -3 5 -44 32 -90 61 -47 28 -83 54 -81 56 8 8 196 -112 196 -125 0
-10 -20 -11 -87 -7 -49 4 -348 21 -666 40 -318 18 -581 35 -584 39 -4 3 -4 8
-2 10 2 2 193 16 424 31 231 14 421 28 423 30 2 1 -51 36 -117 76 -67 41 -121
77 -121 82 0 10 64 9 428 -9 177 -8 329 -14 337 -12 12 2 5 20 -29 78 -109
185 -285 317 -496 371 -87 23 -242 27 -340 9 -235 -43 -452 -207 -562 -425
-51 -100 -70 -182 -75 -322 l-6 -131 -131 -6 c-414 -19 -506 -26 -561 -41 -67
-18 -164 -65 -243 -119 -101 -67 -222 -84 -327 -45 -65 24 -115 63 -100 77 6
5 39 19 75 32 159 56 171 62 191 94 10 17 19 26 19 19 0 -35 -52 -69 -162
-108 -62 -22 -113 -45 -112 -50 1 -6 26 -23 57 -39 112 -57 239 -44 366 38
159 104 230 125 471 137 102 6 244 13 315 17 l130 7 -3 50 c-9 128 39 319 108
435 186 313 545 467 890 383z m1844 -467 c57 -17 129 -63 124 -78 -2 -6 -51
-27 -108 -47 -132 -47 -146 -55 -165 -91 -39 -76 9 -216 81 -234 15 -4 71 7
145 29 67 20 127 34 136 31 11 -5 8 -17 -19 -67 -38 -73 -102 -128 -185 -159
-82 -31 -198 -26 -268 11 -226 120 -257 129 -436 129 l-127 0 -12 -67 c-7 -38
-22 -97 -34 -133 -20 -63 -22 -65 -56 -68 -115 -8 -115 -8 -150 -75 -18 -34
-52 -90 -76 -124 -24 -34 -44 -66 -44 -72 0 -5 12 -38 27 -72 l27 -62 -66 -62
c-36 -34 -86 -76 -111 -94 l-47 -32 -60 41 -60 41 -73 -35 c-40 -20 -105 -45
-144 -58 l-71 -22 -12 -69 c-15 -85 -20 -87 -186 -94 l-120 -6 -25 69 -25 68
-88 17 c-48 10 -115 27 -148 38 l-61 21 -37 -30 c-20 -16 -43 -36 -50 -45 -7
-8 -21 -15 -32 -15 -22 0 -162 80 -210 120 l-30 26 19 71 20 72 -49 48 c-27
26 -72 78 -100 115 l-50 68 -77 -3 -76 -2 -27 55 c-45 92 -79 202 -67 216 11
13 -25 17 -246 29 -103 6 -124 9 -114 19 2 3 231 23 509 45 278 23 512 42 520
44 8 1 -31 31 -88 66 -95 58 -120 81 -89 81 100 -2 1330 -79 1334 -84 4 -3 4
-8 2 -10 -3 -3 -809 -57 -848 -56 -8 0 40 -34 107 -76 67 -41 122 -79 122 -85
0 -12 -49 -11 -400 6 -162 8 -312 15 -333 15 l-38 0 31 -59 c99 -186 295 -338
505 -392 109 -28 270 -28 380 0 173 45 330 147 440 285 110 140 155 265 162
453 l6 131 131 6 c475 22 501 24 571 46 80 25 150 59 215 103 106 73 218 95
324 63z m-3808 -28 c224 -119 256 -128 435 -128 124 0 128 1 132 23 5 19 5 19
4 -3 l-2 -25 -134 -3 c-151 -3 -221 10 -313 58 -32 17 -86 45 -120 63 -57 29
-70 32 -153 32 -78 0 -97 -4 -146 -27 -65 -32 -130 -95 -159 -152 -10 -22 -18
-42 -16 -44 2 -2 58 13 124 32 133 40 140 41 177 24 28 -12 75 -93 75 -125 -1
-10 -7 -1 -14 19 -40 113 -64 120 -233 72 -73 -21 -135 -35 -138 -32 -10 9 22
76 56 119 38 48 99 91 159 113 70 25 203 17 266 -16z m-900 -1799 c32 -12 73
-36 93 -55 l36 -33 -55 -50 c-30 -28 -60 -50 -67 -51 -7 0 -29 11 -49 25 -69
47 -149 26 -178 -47 -22 -55 -14 -98 26 -138 28 -29 36 -31 85 -28 29 2 53 0
53 -4 0 -15 -102 -8 -130 9 -81 47 -74 185 11 231 34 18 110 10 148 -17 l31
-23 51 42 c27 24 48 48 46 54 -9 27 -87 73 -146 86 -151 32 -293 -27 -347
-145 -13 -27 -24 -44 -24 -37 0 17 35 82 58 107 81 90 232 121 358 74z m1044
-6 c101 -46 163 -142 163 -253 0 -148 -94 -254 -247 -278 -144 -23 -268 34
-325 149 -26 52 -31 73 -29 128 l1 66 7 -75 c8 -90 33 -144 91 -194 60 -51
123 -69 223 -64 91 5 141 26 193 80 78 81 96 208 46 309 -101 198 -422 198
-525 0 -15 -29 -28 -48 -28 -42 0 23 39 87 72 117 33 32 81 60 128 75 45 15
181 4 230 -18z m564 13 c88 -21 93 -29 60 -110 -21 -53 -30 -66 -43 -61 -52
21 -140 37 -164 31 -35 -8 -35 -34 1 -42 90 -20 149 -37 172 -49 114 -59 109
-217 -10 -284 -76 -43 -252 -43 -347 -1 -44 19 -51 33 -33 60 8 11 9 8 5 -11
-6 -24 -3 -28 42 -44 29 -10 90 -19 153 -22 100 -4 107 -3 160 24 68 35 100
79 100 140 0 89 -43 127 -184 162 -88 22 -96 26 -96 51 0 35 73 40 157 11 l52
-18 26 60 c29 66 28 69 -35 87 -159 48 -344 -4 -366 -103 -4 -18 -9 -27 -11
-20 -2 7 3 28 13 48 18 39 70 78 125 94 50 14 156 13 223 -3z m1302 -15 c29
-12 64 -36 80 -52 l28 -29 -55 -50 c-30 -27 -59 -49 -66 -50 -7 0 -29 11 -49
25 -96 65 -209 -8 -188 -122 4 -19 20 -48 37 -64 27 -28 35 -30 84 -27 29 2
53 0 53 -4 0 -15 -102 -8 -130 9 -81 47 -74 185 11 231 34 18 110 10 148 -18
l32 -22 47 40 c26 21 47 45 47 53 0 25 -80 75 -144 89 -151 32 -293 -27 -347
-145 -13 -27 -24 -44 -24 -37 0 17 35 82 58 107 35 39 60 56 113 75 72 27 192
23 265 -9z m1025 2 c141 -63 204 -237 135 -377 -42 -86 -116 -138 -220 -154
-119 -19 -240 24 -300 107 -44 61 -56 101 -54 175 l1 61 7 -75 c8 -90 33 -144
91 -193 53 -46 116 -67 200 -67 173 0 288 109 289 271 0 52 -6 77 -27 120
-101 198 -422 198 -525 0 -15 -29 -28 -48 -28 -42 0 23 39 87 72 117 33 32 81
60 128 75 45 15 181 4 231 -18z m-3571 -178 l0 -195 120 0 120 0 0 -75 0 -75
-215 0 -215 0 0 270 0 270 95 0 95 0 0 -195z m1830 120 l0 -75 -125 0 -125 0
0 -25 0 -25 110 0 110 0 0 -70 0 -70 -110 0 -110 0 0 -25 0 -24 128 -3 127 -3
3 -72 3 -73 -226 0 -225 0 0 270 0 270 220 0 220 0 0 -75z m1060 -120 l0 -195
120 0 120 0 0 -75 0 -75 -215 0 -215 0 0 270 0 270 95 0 95 0 0 -195z m1279
184 c118 -27 165 -135 95 -218 l-25 -30 26 -17 c36 -24 55 -65 55 -120 0 -40
-5 -51 -38 -84 -21 -21 -55 -43 -77 -49 -23 -6 -122 -11 -227 -11 l-188 0 0
270 0 270 168 0 c92 0 187 -5 211 -11z m570 -16 c40 -87 221 -503 221 -507 0
-4 -45 -6 -99 -6 l-99 0 -18 45 -17 45 -93 0 -92 0 -18 -45 -17 -45 -99 0
c-76 0 -99 3 -95 13 25 62 61 137 64 134 2 -2 -10 -34 -26 -71 l-30 -66 89 0
88 0 18 45 17 45 99 0 99 0 19 -45 19 -45 86 0 c47 0 85 4 85 8 0 5 -49 121
-109 258 l-109 249 -85 3 c-85 3 -86 2 -101 -25 -18 -33 -21 -25 -4 12 11 24
14 25 103 25 90 0 92 0 104 -27z m-4135 -134 c50 -40 69 -104 46 -164 -38
-101 -182 -101 -220 0 -45 118 81 237 174 164z m1836 -724 l0 -25 -105 0 -105
0 0 -55 0 -54 93 -3 c87 -3 92 -4 95 -25 3 -22 1 -23 -92 -23 l-96 0 0 -60 0
-59 108 -3 c102 -3 107 -4 110 -25 3 -23 3 -23 -135 -21 l-138 2 133 3 c108 3
132 6 132 18 0 12 -20 15 -110 15 l-111 0 3 68 3 67 93 3 c73 2 92 6 92 17 0
12 -18 15 -95 15 l-95 0 0 65 0 65 105 0 c86 0 105 3 105 15 0 12 -23 15 -127
18 l-128 3 133 2 132 2 0 -25z m1690 0 l0 -25 -105 0 -105 0 0 -55 0 -54 93
-3 c87 -3 92 -4 95 -25 3 -22 1 -23 -92 -23 l-96 0 0 -60 0 -59 108 -3 c102
-3 107 -4 110 -25 3 -23 3 -23 -135 -21 l-138 2 133 3 c108 3 132 6 132 18 0
12 -20 15 -110 15 l-111 0 3 68 3 67 93 3 c73 2 92 6 92 17 0 12 -18 15 -95
15 l-95 0 0 65 0 65 105 0 c86 0 105 3 105 15 0 12 -23 15 -127 18 l-128 3
133 2 132 2 0 -25z"/>
<path d="M610 980 l0 -260 205 0 205 0 0 65 0 65 -120 0 -120 0 0 195 0 195
-85 0 -85 0 0 -260z"/>
<path d="M2190 980 l0 -260 215 0 215 0 0 65 0 65 -130 0 -130 0 0 35 0 35
110 0 110 0 0 60 0 59 -107 3 -108 3 -3 33 -3 32 125 0 126 0 0 65 0 65 -210
0 -210 0 0 -260z"/>
<path d="M3500 980 l0 -260 205 0 205 0 0 65 0 65 -120 0 -120 0 0 195 0 195
-85 0 -85 0 0 -260z"/>
<path d="M4590 979 l0 -261 198 4 c220 3 257 12 293 72 35 58 14 147 -43 177
-33 17 -33 17 -9 36 31 25 51 89 40 127 -13 45 -59 82 -118 95 -29 6 -122 11
-206 11 l-155 0 0 -261z"/>
<path d="M1282 1087 c-47 -27 -69 -86 -52 -147 26 -97 148 -110 195 -20 52
102 -48 219 -143 167z"/>
<path d="M5770 980 l0 -260 205 0 205 0 0 65 0 65 -120 0 -120 0 0 195 0 195
-85 0 -85 0 0 -260z"/>
</g>
</svg>
